<svg xmlns="http://www.w3.org/2000/svg" width="48" height="48" enable-background="new 0 0 48 48" viewBox="0 0 48 48" id="faq"><path fill="#6E6EAA" d="M24,0C10.766,0,0,10.766,0,24c0,13.233,10.766,24,24,24s24-10.767,24-24C48,10.766,37.234,0,24,0z
		 M24,43.471C13.264,43.471,4.527,34.737,4.527,24C4.527,13.263,13.264,4.528,24,4.528S43.471,13.263,43.471,24
		C43.471,34.737,34.736,43.471,24,43.471z"></path><path fill="#6E6EAA" d="M23.082 31.85c-2.086 0-3.6 1.563-3.6 3.717 0 2.096 1.531 3.678 3.561 3.678 2.086 0 3.6-1.547 3.6-3.678C26.643 33.413 25.145 31.85 23.082 31.85zM23.664 8.756c-2.328 0-4.801.706-6.301 1.797l-.787.57 1.883 4.937 1.348-1.023c.734-.557 2.027-.946 3.139-.947 2.443.039 2.443 1.572 2.443 2.075 0 1.385-.889 2.702-2.426 4.511-2.078 2.494-2.986 5.067-2.699 7.632l.166 2.182h5.525l-.092-2.352c-.1-1.697.455-3.094 1.918-4.822 2.063-2.449 3.641-4.563 3.641-7.578C31.422 12.262 29.023 8.756 23.664 8.756z"></path></svg>